<?xml version="1.0" encoding="utf-8"?>
<!-- Generator: Adobe Illustrator 24.1.0, SVG Export Plug-In . SVG Version: 6.00 Build 0)  -->
<svg version="1.1" id="Layer_1" xmlns="http://www.w3.org/2000/svg" xmlns:xlink="http://www.w3.org/1999/xlink" x="0px" y="0px"
	 viewBox="0 0 512 512" style="enable-background:new 0 0 512 512;" xml:space="preserve">
<style type="text/css">
	.st0{fill:#28293C;}
</style>
<path class="st0" d="M454.9,198.6c-16.2,0-30.4,6.8-40.9,17.4c-38.5-27.1-90.4-44.5-148-46.3L296,33l95.2,21.7
	c0,23.6,19,42.9,42.3,42.9c23.7,0,42.8-19.8,42.8-43.5s-19-43.5-42.8-43.5c-16.6,0-31,10.2-38.1,24.1L290.2,11.1
	c-5.3-1.4-10.5,2.4-11.9,7.8l-32.8,150.7c-57.1,2.4-108.5,19.8-147.1,46.9C88,205.4,73.2,198.6,57,198.6c-60,0-79.6,81.7-24.7,109.6
	c-1.9,8.6-2.8,17.9-2.8,27.1c0,91.8,101.9,166.1,226.9,166.1c125.6,0,227.5-74.3,227.5-166.1c0-9.2-1-18.8-3.3-27.5
	C534.4,279.7,514.6,198.6,454.9,198.6L454.9,198.6z M119.5,314c0-24.1,19-43.5,42.8-43.5c23.3,0,42.3,19.3,42.3,43.5
	c0,23.7-19,42.9-42.3,42.9C138.6,357,119.5,337.6,119.5,314L119.5,314z M350.7,416.3c-39.3,39.9-150.1,39.9-189.4,0
	c-4.3-3.8-4.3-10.6,0-15c3.8-3.8,10.5-3.8,14.3,0c30,31.2,129.5,31.7,160.8,0c3.8-3.8,10.5-3.8,14.3,0
	C355,405.7,355,412.5,350.7,416.3L350.7,416.3z M349.8,357c-23.3,0-42.3-19.3-42.3-42.9c0-24.1,19-43.5,42.3-43.5
	c23.7,0,42.8,19.3,42.8,43.5C392.6,337.6,373.6,357,349.8,357z"/>
</svg>
