<svg xmlns="http://www.w3.org/2000/svg" viewBox="0 0 600 50"><rect width="600" height="50" style="fill:#f6f8fc"/><path d="M384.46,13.38a1.05,1.05,0,0,0-.84.39,1.47,1.47,0,0,0-.34,1v.11a1.36,1.36,0,0,0,.34,1,1.1,1.1,0,0,0,.88.39,1.54,1.54,0,0,0,.57-.07,1.11,1.11,0,0,0,.4-.26l-.13-.21A1,1,0,0,1,385,16a1.35,1.35,0,0,1-.49.07.78.78,0,0,1-.66-.32,1.22,1.22,0,0,1-.25-.79v-.07h2v-.26a1.24,1.24,0,0,0-.29-.88A1,1,0,0,0,384.46,13.38Zm.74,1.16h-1.59a1.12,1.12,0,0,1,.27-.66.73.73,0,0,1,.56-.26.72.72,0,0,1,.54.22.88.88,0,0,1,.22.62Zm-16.46-.31a.88.88,0,0,0,.45-.3.78.78,0,0,0,.16-.51.86.86,0,0,0-.33-.74,1.48,1.48,0,0,0-.91-.25v0h-1.53v.23l.43,0V16h-.43v.23h1.73a1.37,1.37,0,0,0,.88-.27,1,1,0,0,0,.11-1.4A.89.89,0,0,0,368.74,14.23Zm-1.42-1.53h.79a1.1,1.1,0,0,1,.7.18.61.61,0,0,1,.23.53.63.63,0,0,1-.22.53,1,1,0,0,1-.64.18h-.86Zm1.65,3a1,1,0,0,1-.66.2h-1V14.39h1a.82.82,0,0,1,.63.22.7.7,0,0,1,.22.55A.75.75,0,0,1,369,15.74Zm3.16-2.07a1.21,1.21,0,0,0-1.71.09,1.43,1.43,0,0,0-.34,1v.09a1.47,1.47,0,0,0,.34,1,1.15,1.15,0,0,0,.9.4,1.14,1.14,0,0,0,.9-.4,1.57,1.57,0,0,0,.34-1v-.09a1.47,1.47,0,0,0-.34-1Zm.11,1.19a1.26,1.26,0,0,1-.24.82.86.86,0,0,1-.13.14.87.87,0,0,1-1.23-.14,1.33,1.33,0,0,1-.25-.82l0-.09a1.31,1.31,0,0,1,.24-.81.81.81,0,0,1,.7-.33.79.79,0,0,1,.7.33,1.25,1.25,0,0,1,.24.81Zm3.16-1.48h-.7v.28h.41v1.71a.88.88,0,0,1-.29.44,1,1,0,0,1-.57.15.61.61,0,0,1-.5-.22,1.27,1.27,0,0,1-.17-.74V13.38h-.66v.28h.35V15a1.53,1.53,0,0,0,.25.94.9.9,0,0,0,.7.3.93.93,0,0,0,.54-.14.94.94,0,0,0,.36-.38v.4h.65v-.23h-.38Zm3.34,1.09a1.28,1.28,0,0,0-.23-.87.89.89,0,0,0-.7-.28,1,1,0,0,0-.91.54v-.48h-.7v.28h.42V16h-.42l0,.18h1.15v-.23h-.42V14.24a1.12,1.12,0,0,1,.3-.47.83.83,0,0,1,.53-.16.64.64,0,0,1,.51.19,1,1,0,0,1,.19.7v1.41H378v.23h1.16v-.23h-.43Zm2,1.51a.31.31,0,0,1-.27-.12.54.54,0,0,1-.1-.39V13.63H381v-.25h-.62v-.7h-.3v.7h-.48v.28h.46v1.82a.84.84,0,0,0,.17.59.58.58,0,0,0,.46.19h.22l.19-.05-.05-.23Zm1.53-3.82H382v.44h.31Zm0,1.22h-.74v.28H382V16h-.43v.16h1.16v-.23h-.42ZM387.93,15a1.88,1.88,0,0,0-.75-.3,1.43,1.43,0,0,1-.59-.23.38.38,0,0,1-.15-.32.46.46,0,0,1,.18-.34.79.79,0,0,1,.51-.15,1.05,1.05,0,0,1,.4.07.77.77,0,0,1,.3.19l0,.39h.26V13.7a1.07,1.07,0,0,0-.42-.25,1.54,1.54,0,0,0-.56-.1,1.1,1.1,0,0,0-.7.22.69.69,0,0,0-.27.55.57.57,0,0,0,.24.5,2,2,0,0,0,.74.29,1.24,1.24,0,0,1,.58.24.42.42,0,0,1,.17.34.45.45,0,0,1-.19.36.94.94,0,0,1-.54.15,1.27,1.27,0,0,1-.39-.06.68.68,0,0,1-.32-.18l-.05-.4h-.25v.57a1.22,1.22,0,0,0,.45.24,1.65,1.65,0,0,0,.54.09,1.24,1.24,0,0,0,.75-.21.73.73,0,0,0,.29-.57A.64.64,0,0,0,387.93,15ZM281.45,12.68a1.11,1.11,0,0,0-1.58.13,1.79,1.79,0,0,0-.32,1.12v.84a1.82,1.82,0,0,0,.32,1.13A.8.8,0,0,0,280,16a1.15,1.15,0,0,0,1.6-.13,1.8,1.8,0,0,0,.3-1.13v-.84a1.72,1.72,0,0,0-.31-1.12A.86.86,0,0,0,281.45,12.68Zm.15,2.09a1.58,1.58,0,0,1-.23.9l-.14.14a.82.82,0,0,1-1.14-.14,1.57,1.57,0,0,1-.22-.9v-.89a1.55,1.55,0,0,1,.22-.89.86.86,0,0,1,.13-.14.82.82,0,0,1,1.15.14,1.56,1.56,0,0,1,.23.89ZM284,12.45l-1.05.23v.19l.74-.11V16H283v.19h1.71v-.23H284Zm4.73,4.08H289l1.58-4.1h-.28Zm8.48-1.8h63v-.14h-63Z" style="fill:#a2a3b9"/><rect x="461.07" y="17.14" width="92.18" height="15.73" style="fill:none;stroke:#181ea9;stroke-miterlimit:10;stroke-width:0.3771477937698364px"/><path d="M486.81,27.34V23.7h.33V27h1.73v.3Z" style="fill:#181ea9"/><path d="M490.62,27.34V23.7h2.11V24H491v1.37h1.67v.3H491V27h1.81v.3Z" style="fill:#181ea9"/><path d="M494.59,27.34h-.35l1.33-3.64h.35l1.32,3.64h-.34l-1.14-3.21h0Zm.25-1.39h1.81v.29h-1.81Z" style="fill:#181ea9"/><path d="M498.87,27.34V23.7H500a1.42,1.42,0,0,1,.65.14,1,1,0,0,1,.39.39,1.27,1.27,0,0,1,0,1.12.89.89,0,0,1-.39.38,1.38,1.38,0,0,1-.64.14h-1v-.3h1a1,1,0,0,0,.47-.1.57.57,0,0,0,.28-.27.89.89,0,0,0,0-.82.63.63,0,0,0-.28-.28A1,1,0,0,0,500,24h-.83v3.34Zm1.6-1.64.9,1.64H501l-.88-1.64Z" style="fill:#181ea9"/><path d="M505.85,23.7v3.64h-.32l-2.15-3.05h0v3.05H503V23.7h.32l2.16,3.05h0V23.7Z" style="fill:#181ea9"/><path d="M510.23,23.7h.38l1.32,3.17h0l1.32-3.17h.38v3.64h-.31V24.41h0l-1.22,2.93h-.31l-1.22-2.93h0v2.93h-.31Z" style="fill:#181ea9"/><path d="M518.61,25.52a2.33,2.33,0,0,1-.2,1,1.56,1.56,0,0,1-.56.65,1.48,1.48,0,0,1-.81.23,1.51,1.51,0,0,1-.82-.23,1.54,1.54,0,0,1-.55-.65,2.55,2.55,0,0,1,0-2,1.6,1.6,0,0,1,.55-.65,1.51,1.51,0,0,1,.82-.23,1.48,1.48,0,0,1,.81.23,1.62,1.62,0,0,1,.56.65A2.33,2.33,0,0,1,518.61,25.52Zm-.32,0a2,2,0,0,0-.17-.84,1.19,1.19,0,0,0-1.72-.53,1.24,1.24,0,0,0-.45.53,2,2,0,0,0-.16.84,1.94,1.94,0,0,0,.16.84,1.24,1.24,0,0,0,.45.53,1.07,1.07,0,0,0,.64.19,1.1,1.1,0,0,0,.64-.19,1.24,1.24,0,0,0,.45-.53A2.1,2.1,0,0,0,518.29,25.52Z" style="fill:#181ea9"/><path d="M520.41,27.34V23.7h1.18a1.35,1.35,0,0,1,.64.14.94.94,0,0,1,.4.39,1.27,1.27,0,0,1,0,1.12.89.89,0,0,1-.39.38,1.42,1.42,0,0,1-.65.14h-1v-.3h1a1,1,0,0,0,.48-.1.61.61,0,0,0,.28-.27,1,1,0,0,0,0-.82.61.61,0,0,0-.29-.28.94.94,0,0,0-.47-.1h-.83v3.34ZM522,25.7l.89,1.64h-.38l-.89-1.64Z" style="fill:#181ea9"/><path d="M524.57,27.34V23.7h2.11V24H524.9v1.37h1.67v.3H524.9V27h1.81v.3Z" style="fill:#181ea9"/><path d="M70.41,17.38h-.08l-.1,0a.09.09,0,0,1-.06-.06.25.25,0,0,1,0-.1v-1h.4v-.52h-.4v-.53h-.71v.53h-.29v.52h.29v1.09a.7.7,0,0,0,.09.37.49.49,0,0,0,.27.22,1,1,0,0,0,.43.06.73.73,0,0,0,.22,0l.14,0-.11-.51ZM72.68,16a.87.87,0,0,0-.34-.22,1.18,1.18,0,0,0-.43-.08,1.13,1.13,0,0,0-.59.15,1,1,0,0,0-.38.4,1.27,1.27,0,0,0-.14.6,1.32,1.32,0,0,0,.14.62.92.92,0,0,0,.39.39,1.27,1.27,0,0,0,.6.14,1.36,1.36,0,0,0,.51-.09.86.86,0,0,0,.36-.25.84.84,0,0,0,.18-.38l-.65,0a.57.57,0,0,1-.08.13.37.37,0,0,1-.14.07.47.47,0,0,1-.17,0,.41.41,0,0,1-.23-.06.29.29,0,0,1-.15-.16A.41.41,0,0,1,71.5,17v0H73v-.18a1.53,1.53,0,0,0-.08-.49A1,1,0,0,0,72.68,16Zm-1.18.61a.43.43,0,0,1,.06-.2.4.4,0,0,1,.15-.14.47.47,0,0,1,.42,0,.35.35,0,0,1,.14.13.37.37,0,0,1,.06.21Zm-7.43-.91a.52.52,0,0,0-.32.11.6.6,0,0,0-.2.33h0v-.41h-.69v2.23h.71V16.7a.44.44,0,0,1,.22-.39.51.51,0,0,1,.22,0h.15l.13,0v-.61l-.1,0ZM54.5,12.49,52.69,14.3a3.76,3.76,0,1,0-2.8,6.77v1.36a3.76,3.76,0,1,0,1.25,0V21.07a3.75,3.75,0,0,0,3.13-3.7,3.79,3.79,0,0,0-.69-2.18l1.81-1.81ZM53,26.14a2.51,2.51,0,1,1-2.51-2.51A2.5,2.5,0,0,1,53,26.14Zm-2.51-6.27A2.51,2.51,0,1,1,53,17.37,2.5,2.5,0,0,1,50.51,19.87Zm10.25-4.23a.6.6,0,0,1,.37-.11.85.85,0,0,1,.23,0,1,1,0,0,1,.17.1.48.48,0,0,1,.12.16.52.52,0,0,1,.06.2h.72a1.22,1.22,0,0,0-.13-.48,1.2,1.2,0,0,0-.28-.35,1.32,1.32,0,0,0-.41-.21,1.59,1.59,0,0,0-.5-.08,1.41,1.41,0,0,0-.71.18,1.39,1.39,0,0,0-.51.51,1.8,1.8,0,0,0-.18.84,1.71,1.71,0,0,0,.18.82,1.26,1.26,0,0,0,.5.52,1.48,1.48,0,0,0,.72.18,1.55,1.55,0,0,0,.55-.09,1.44,1.44,0,0,0,.4-.25,1.23,1.23,0,0,0,.26-.35,1.15,1.15,0,0,0,.11-.39h-.72a.62.62,0,0,1-.07.19.53.53,0,0,1-.12.14.56.56,0,0,1-.17.09.78.78,0,0,1-.22,0,.66.66,0,0,1-.37-.1.73.73,0,0,1-.24-.3,1.54,1.54,0,0,1,0-1A.73.73,0,0,1,60.76,15.64Zm5.48.31a1,1,0,0,0-.34-.22,1.23,1.23,0,0,0-.44-.08,1.09,1.09,0,0,0-.58.15.92.92,0,0,0-.38.4,1.16,1.16,0,0,0-.14.6,1.32,1.32,0,0,0,.13.62.92.92,0,0,0,.39.39,1.27,1.27,0,0,0,.6.14,1.38,1.38,0,0,0,.52-.09.93.93,0,0,0,.36-.25.73.73,0,0,0,.17-.38l-.65,0a.35.35,0,0,1-.08.13.33.33,0,0,1-.13.07.47.47,0,0,1-.17,0,.48.48,0,0,1-.24-.06.39.39,0,0,1-.15-.16.52.52,0,0,1,0-.23v0h1.48v-.18a1.53,1.53,0,0,0-.08-.49A1,1,0,0,0,66.24,16Zm-1.18.61a.34.34,0,0,1,.06-.2.32.32,0,0,1,.14-.14.42.42,0,0,1,.22,0,.38.38,0,0,1,.21,0,.44.44,0,0,1,.14.13.46.46,0,0,1,0,.21Zm3.52-.71a1.28,1.28,0,0,0-.31-.15,1.6,1.6,0,0,0-.39,0,1.13,1.13,0,0,0-.51.1A.74.74,0,0,0,67,16a.82.82,0,0,0-.15.36l.66,0a.25.25,0,0,1,.1-.16.41.41,0,0,1,.23-.06.33.33,0,0,1,.21.06.19.19,0,0,1,.07.17h0a.1.1,0,0,1-.05.1.41.41,0,0,1-.17.06l-.3,0a1.52,1.52,0,0,0-.32.06.89.89,0,0,0-.26.12.46.46,0,0,0-.18.21.59.59,0,0,0-.07.31.62.62,0,0,0,.1.37.52.52,0,0,0,.25.21.92.92,0,0,0,.38.08,1.11,1.11,0,0,0,.28,0,.78.78,0,0,0,.22-.12.7.7,0,0,0,.15-.19h0v.31h.66V16.4a.62.62,0,0,0-.28-.55Zm-.42,1.27a.33.33,0,0,1-.06.19.35.35,0,0,1-.14.13.46.46,0,0,1-.21,0,.32.32,0,0,1-.2-.06.18.18,0,0,1-.08-.16.2.2,0,0,1,0-.13.24.24,0,0,1,.11-.08.38.38,0,0,1,.17-.05l.1,0,.1,0,.1,0,.07,0Zm5.59.08a.37.37,0,0,0-.27.11.36.36,0,0,0-.11.26.38.38,0,0,0,.38.38.38.38,0,0,0,.32-.19.3.3,0,0,0,.05-.19.36.36,0,0,0-.11-.26A.38.38,0,0,0,73.75,17.2ZM91,17.38h-.09l-.09,0a.13.13,0,0,1-.07-.06.25.25,0,0,1,0-.1v-1h.4v-.52h-.4v-.53H90v.53h-.29v.52H90v1.09a.7.7,0,0,0,.09.37.56.56,0,0,0,.28.22.91.91,0,0,0,.42.06.69.69,0,0,0,.22,0l.14,0-.1-.51Zm3.33-.18a.4.4,0,0,0-.27.11.32.32,0,0,0-.1.26.33.33,0,0,0,.1.27.4.4,0,0,0,.27.11.41.41,0,0,0,.19-.05.35.35,0,0,0,.13-.14.31.31,0,0,0,.06-.19.34.34,0,0,0-.12-.26A.36.36,0,0,0,94.35,17.2Zm5.74-1.35a1.35,1.35,0,0,0-.32-.15,1.6,1.6,0,0,0-.39,0,1.13,1.13,0,0,0-.51.1.76.76,0,0,0-.33.25.82.82,0,0,0-.15.36l.65,0a.26.26,0,0,1,.11-.16.39.39,0,0,1,.23-.06.32.32,0,0,1,.2.06.2.2,0,0,1,.08.17h0a.12.12,0,0,1,0,.1.56.56,0,0,1-.17.06l-.31,0a1.65,1.65,0,0,0-.32.06,1,1,0,0,0-.26.12.46.46,0,0,0-.18.21.71.71,0,0,0-.07.31.7.7,0,0,0,.1.37.54.54,0,0,0,.26.21A.89.89,0,0,0,99,18a1.26,1.26,0,0,0,.28,0,.72.72,0,0,0,.21-.12.7.7,0,0,0,.15-.19h0v.31h.67V16.4a.66.66,0,0,0-.08-.32A.63.63,0,0,0,100.09,15.85Zm-.43,1.27a.32.32,0,0,1,0,.19.47.47,0,0,1-.15.13.46.46,0,0,1-.21,0,.34.34,0,0,1-.2-.06.18.18,0,0,1-.07-.16.28.28,0,0,1,0-.13.31.31,0,0,1,.11-.08.42.42,0,0,1,.17-.05l.1,0,.11,0,.09,0,.07,0Zm-3.77.79H98v-.58H96.61v-.61h1.24v-.59H96.61v-.61H98v-.58H95.89ZM102,15.65a.52.52,0,0,0-.32.11.6.6,0,0,0-.2.33h0v-.41h-.69v2.23h.71V16.7a.52.52,0,0,1,0-.23.41.41,0,0,1,.16-.16.56.56,0,0,1,.23,0h.14l.14,0v-.61l-.1,0Zm2.27.11a.78.78,0,0,0-.41-.11.74.74,0,0,0-.42.12.68.68,0,0,0-.26.32h0v-.41h-.67v2.23h.7V16.64a.65.65,0,0,1,0-.22.44.44,0,0,1,.13-.14.42.42,0,0,1,.2,0,.33.33,0,0,1,.26.1.39.39,0,0,1,.09.29v1.28h.71V16.49a1,1,0,0,0-.09-.44A.84.84,0,0,0,104.3,15.76Zm1.46,1.55a.36.36,0,0,0-.26-.11.4.4,0,0,0-.27.11.32.32,0,0,0-.1.26.33.33,0,0,0,.1.27.4.4,0,0,0,.27.11.41.41,0,0,0,.19-.05.35.35,0,0,0,.13-.14.31.31,0,0,0,.06-.19A.34.34,0,0,0,105.76,17.31Zm-17-.36a.51.51,0,0,1,0,.22.44.44,0,0,1-.13.14.41.41,0,0,1-.19,0,.33.33,0,0,1-.26-.1A.44.44,0,0,1,88,17V15.68H87.3V17.1a1.14,1.14,0,0,0,.1.44.69.69,0,0,0,.27.29.81.81,0,0,0,.83,0,.64.64,0,0,0,.25-.33h0v.42h.68V15.68h-.71Zm4.55-1a1,1,0,0,0-.34-.22,1.27,1.27,0,0,0-.44-.08,1.09,1.09,0,0,0-.58.15.94.94,0,0,0-.39.4,1.26,1.26,0,0,0-.13.6,1.32,1.32,0,0,0,.13.62.92.92,0,0,0,.39.39,1.27,1.27,0,0,0,.6.14,1.38,1.38,0,0,0,.52-.09.9.9,0,0,0,.35-.25.68.68,0,0,0,.18-.38l-.65,0a.35.35,0,0,1-.08.13.33.33,0,0,1-.13.07.47.47,0,0,1-.17,0,.48.48,0,0,1-.24-.06.39.39,0,0,1-.15-.16.41.41,0,0,1,0-.23v0h1.48v-.18a1.53,1.53,0,0,0-.08-.49A1,1,0,0,0,93.29,16Zm-1.18.61a.42.42,0,0,1,0-.2.4.4,0,0,1,.15-.14.42.42,0,0,1,.22,0,.35.35,0,0,1,.2,0,.47.47,0,0,1,.15.13.46.46,0,0,1,.05.21ZM80,15.8a1.16,1.16,0,0,0-.6-.15,1.11,1.11,0,0,0-.6.15.94.94,0,0,0-.39.4,1.36,1.36,0,0,0,0,1.2,1,1,0,0,0,.39.41,1.21,1.21,0,0,0,.6.14,1.27,1.27,0,0,0,.6-.14,1,1,0,0,0,.39-.41,1.45,1.45,0,0,0,0-1.2A.94.94,0,0,0,80,15.8Zm-.25,1.32a.48.48,0,0,1-.13.22.34.34,0,0,1-.44,0,.49.49,0,0,1-.14-.22,1,1,0,0,1,0-.32,1.14,1.14,0,0,1,0-.33.46.46,0,0,1,.14-.21.34.34,0,0,1,.44,0,.44.44,0,0,1,.13.21,1.14,1.14,0,0,1,0,.33A1,1,0,0,1,79.78,17.12Zm3.76-1.47a.74.74,0,0,0-.42.12.6.6,0,0,0-.25.32h0a.54.54,0,0,0-.21-.32.65.65,0,0,0-.4-.12.65.65,0,0,0-.39.12.7.7,0,0,0-.24.32h0v-.41h-.68v2.23h.71V16.59a.53.53,0,0,1,0-.19.32.32,0,0,1,.11-.12.34.34,0,0,1,.17-.05.29.29,0,0,1,.22.09.33.33,0,0,1,.08.25v1.34h.68V16.58a.33.33,0,0,1,.09-.25.26.26,0,0,1,.23-.1.29.29,0,0,1,.22.09.33.33,0,0,1,.08.25v1.34h.71v-1.5a.75.75,0,0,0-.19-.55A.7.7,0,0,0,83.54,15.65Zm2.94.13a.75.75,0,0,0-.43-.13.67.67,0,0,0-.3.06.58.58,0,0,0-.21.16,1,1,0,0,0-.12.19h0v-.38h-.7v3.06h.71V17.55h0a.76.76,0,0,0,.12.19.8.8,0,0,0,.21.15.84.84,0,0,0,.29.05.77.77,0,0,0,.45-.13.81.81,0,0,0,.32-.38,1.48,1.48,0,0,0,.12-.63,1.54,1.54,0,0,0-.12-.65A.86.86,0,0,0,86.48,15.78Zm-.32,1.33a.46.46,0,0,1-.14.21.41.41,0,0,1-.22.07.38.38,0,0,1-.22-.07.46.46,0,0,1-.14-.21.75.75,0,0,1,0-.31.77.77,0,0,1,0-.32.43.43,0,0,1,.14-.2.38.38,0,0,1,.44,0,.48.48,0,0,1,.14.2,1,1,0,0,1,0,.32A1,1,0,0,1,86.16,17.11Zm-9.85-1.47a.58.58,0,0,1,.37-.11.73.73,0,0,1,.22,0,.77.77,0,0,1,.18.1.48.48,0,0,1,.12.16.52.52,0,0,1,.06.2H78a1.22,1.22,0,0,0-.14-.48,1.06,1.06,0,0,0-.28-.35,1.27,1.27,0,0,0-.4-.21,1.59,1.59,0,0,0-.5-.08,1.41,1.41,0,0,0-.71.18,1.32,1.32,0,0,0-.51.51,1.8,1.8,0,0,0-.19.84,1.71,1.71,0,0,0,.19.82,1.26,1.26,0,0,0,.5.52,1.43,1.43,0,0,0,.72.18,1.35,1.35,0,0,0,1-.34,1.45,1.45,0,0,0,.26-.35,1.15,1.15,0,0,0,.11-.39h-.72a1.07,1.07,0,0,1-.07.19.57.57,0,0,1-.13.14.39.39,0,0,1-.17.09.71.71,0,0,1-.21,0,.62.62,0,0,1-.37-.1.73.73,0,0,1-.24-.3,1.54,1.54,0,0,1,0-1A.6.6,0,0,1,76.31,15.64Z" style="fill:#181ea9"/><path d="M156.59,36.84l-2.92-10.18H156l1.69,7.07h.08l1.86-7.07h2l1.85,7.09h.09l1.69-7.09h2.35l-2.92,10.18h-2.09l-1.94-6.66h-.08l-1.94,6.66Z" style="fill:#181ea9"/><path d="M169.83,28.22a1.13,1.13,0,0,1-.82-.32,1,1,0,0,1,0-1.51,1.16,1.16,0,0,1,.81-.31,1.12,1.12,0,0,1,.81.31,1,1,0,0,1,0,1.51A1.09,1.09,0,0,1,169.83,28.22Zm-1.07,8.62V29.2h2.11v7.64Z" style="fill:#181ea9"/><path d="M174.68,32.43v4.41h-2.12V29.2h2v1.35h.09a2.14,2.14,0,0,1,.85-1.05,2.6,2.6,0,0,1,1.45-.39,2.73,2.73,0,0,1,1.39.34,2.47,2.47,0,0,1,.92,1A3.42,3.42,0,0,1,179.6,32v4.86h-2.11V32.36a1.57,1.57,0,0,0-.36-1.1,1.3,1.3,0,0,0-1-.39,1.49,1.49,0,0,0-.75.18,1.24,1.24,0,0,0-.51.53A2,2,0,0,0,174.68,32.43Z" style="fill:#181ea9"/><path d="M190.08,29.59a1.27,1.27,0,0,0-.51-.94,2,2,0,0,0-1.23-.33,2.33,2.33,0,0,0-.89.15,1.16,1.16,0,0,0-.55.4,1,1,0,0,0-.08,1.07,1.17,1.17,0,0,0,.35.35,2.8,2.8,0,0,0,.52.25,5,5,0,0,0,.62.18l.92.22a6.23,6.23,0,0,1,1.22.4,3.64,3.64,0,0,1,1,.61,2.62,2.62,0,0,1,.63.85,2.71,2.71,0,0,1,.23,1.13,2.81,2.81,0,0,1-.47,1.62,3,3,0,0,1-1.36,1.06,5.36,5.36,0,0,1-2.12.38,5.66,5.66,0,0,1-2.15-.38,3.18,3.18,0,0,1-1.42-1.12,3.28,3.28,0,0,1-.53-1.85h2.08a1.48,1.48,0,0,0,.3.86,1.62,1.62,0,0,0,.7.51,2.78,2.78,0,0,0,1,.17,2.54,2.54,0,0,0,1-.16,1.41,1.41,0,0,0,.63-.44,1.08,1.08,0,0,0,.22-.65.89.89,0,0,0-.2-.58,1.69,1.69,0,0,0-.59-.4,6.16,6.16,0,0,0-.94-.3l-1.11-.27a4.64,4.64,0,0,1-2-1,2.26,2.26,0,0,1-.74-1.8A2.63,2.63,0,0,1,185,28a3.28,3.28,0,0,1,1.38-1.08,4.79,4.79,0,0,1,2-.39,4.74,4.74,0,0,1,2,.39A3.22,3.22,0,0,1,191.66,28a2.87,2.87,0,0,1,.48,1.6Zm-2.39,8.52.12-12.72H189l-.12,12.72Z" style="fill:#181ea9"/><path d="M197.43,37a4.73,4.73,0,0,1-2-.39,3.27,3.27,0,0,1-1.37-1.06,2.66,2.66,0,0,1-.52-1.57h2.17a1.19,1.19,0,0,0,.25.66,1.49,1.49,0,0,0,.6.43,2.3,2.3,0,0,0,.85.16,2,2,0,0,0,.87-.18,1.41,1.41,0,0,0,.59-.48,1.17,1.17,0,0,0,.22-.71,1.26,1.26,0,0,0-.23-.73,1.44,1.44,0,0,0-.65-.49,2.47,2.47,0,0,0-1-.18h-1V30.86h1a2.13,2.13,0,0,0,.86-.17,1.39,1.39,0,0,0,.59-.47,1.25,1.25,0,0,0,.2-.7,1.2,1.2,0,0,0-.68-1.13,1.67,1.67,0,0,0-.76-.17,2.08,2.08,0,0,0-.8.16,1.41,1.41,0,0,0-.59.45,1.17,1.17,0,0,0-.23.67h-2.06a2.7,2.7,0,0,1,.5-1.55,3.25,3.25,0,0,1,1.31-1.05,4.54,4.54,0,0,1,1.88-.38,4.26,4.26,0,0,1,1.84.38,3.07,3.07,0,0,1,1.23,1,2.51,2.51,0,0,1,.44,1.46,2.06,2.06,0,0,1-.53,1.43,2.43,2.43,0,0,1-1.39.72v.08a2.74,2.74,0,0,1,1.71.78,2.19,2.19,0,0,1,.58,1.58,2.49,2.49,0,0,1-.49,1.55,3.42,3.42,0,0,1-1.39,1.06A5,5,0,0,1,197.43,37Z" style="fill:#181ea9"/><path d="M206.89,37.06a3.83,3.83,0,0,1-2.21-.63,3.94,3.94,0,0,1-1.41-1.81,7.25,7.25,0,0,1-.49-2.86,7.3,7.3,0,0,1,.49-2.84,3.89,3.89,0,0,1,7.24,0,7.3,7.3,0,0,1,.49,2.84,7.39,7.39,0,0,1-.5,2.86,4,4,0,0,1-1.41,1.82A3.79,3.79,0,0,1,206.89,37.06Zm0-1.78a1.55,1.55,0,0,0,1.39-.88,5.18,5.18,0,0,0,.52-2.64,7,7,0,0,0-.23-1.93,2.54,2.54,0,0,0-.67-1.16,1.45,1.45,0,0,0-1-.38,1.57,1.57,0,0,0-1.39.86,5.15,5.15,0,0,0-.53,2.61,6.85,6.85,0,0,0,.24,2,2.52,2.52,0,0,0,.66,1.17A1.48,1.48,0,0,0,206.89,35.28Z" style="fill:#181ea9"/><path d="M212.55,36.84V26.66h2.12V36.84Zm1.92-2.2V32.1h.31l2.45-2.9h2.43L216.37,33h-.5Zm2.85,2.2-2.24-3.33L216.49,32l3.31,4.82Z" style="fill:#181ea9"/><path d="M224.73,27.89a.67.67,0,0,1-.47-.18.62.62,0,0,1-.2-.45.59.59,0,0,1,.2-.45.64.64,0,0,1,.47-.19.66.66,0,0,1,.47.19.58.58,0,0,1,.19.45.61.61,0,0,1-.19.45A.69.69,0,0,1,224.73,27.89Zm-.46,9V29.2h.89v7.64Z" style="fill:#181ea9"/><path d="M228.39,32.07v4.77h-.88V29.2h.86v1.2h.08a2.17,2.17,0,0,1,.84-.94,2.59,2.59,0,0,1,1.41-.35,2.7,2.7,0,0,1,1.35.32,2.18,2.18,0,0,1,.91.94,3.19,3.19,0,0,1,.33,1.52v5h-.89V32a2.07,2.07,0,0,0-.52-1.49,1.88,1.88,0,0,0-1.41-.54,2.22,2.22,0,0,0-1.07.25,1.88,1.88,0,0,0-.73.75A2.2,2.2,0,0,0,228.39,32.07Z" style="fill:#181ea9"/><path d="M239.55,39.7V29.2h.86v1.46h.11A3.15,3.15,0,0,1,241,30a2.15,2.15,0,0,1,.74-.61,2.35,2.35,0,0,1,1.16-.25,2.79,2.79,0,0,1,1.65.49A3.16,3.16,0,0,1,245.61,31,5.08,5.08,0,0,1,246,33a5.18,5.18,0,0,1-.39,2.08,3.34,3.34,0,0,1-1.11,1.38,2.77,2.77,0,0,1-1.64.5,2.4,2.4,0,0,1-1.16-.25,2.28,2.28,0,0,1-.75-.61,2.91,2.91,0,0,1-.43-.72h-.08V39.7Zm.87-6.67a4.44,4.44,0,0,0,.28,1.64,2.55,2.55,0,0,0,.79,1.11,2.17,2.17,0,0,0,2.55,0,2.59,2.59,0,0,0,.8-1.14,4.47,4.47,0,0,0,.27-1.6,4.42,4.42,0,0,0-.27-1.59,2.56,2.56,0,0,0-.79-1.12,2,2,0,0,0-1.3-.41,2,2,0,0,0-1.27.4,2.46,2.46,0,0,0-.79,1.1A4.51,4.51,0,0,0,240.42,33Z" style="fill:#181ea9"/><path d="M248,36.84V29.2h.86v1.18h.06a1.85,1.85,0,0,1,.8-.93,2.36,2.36,0,0,1,1.29-.36h.24l.23,0V30l-.21,0h-.32a2.2,2.2,0,0,0-1.07.25,1.8,1.8,0,0,0-.73.69,1.88,1.88,0,0,0-.27,1v4.93Z" style="fill:#181ea9"/><path d="M253.4,27.89a.65.65,0,0,1-.46-.18.62.62,0,0,1-.2-.45.59.59,0,0,1,.2-.45.62.62,0,0,1,.46-.19.64.64,0,0,1,.47.19.59.59,0,0,1,.2.45.62.62,0,0,1-.2.45A.67.67,0,0,1,253.4,27.89Zm-.45,9V29.2h.89v7.64Z" style="fill:#181ea9"/><path d="M256,36.84v-.7l4.41-6V30h-4.22V29.2h5.36v.74l-4.33,6V36h4.49v.83Z" style="fill:#181ea9"/><path d="M266.48,37a3.37,3.37,0,0,1-1.85-.5,3.29,3.29,0,0,1-1.21-1.39,4.71,4.71,0,0,1-.42-2,4.78,4.78,0,0,1,.42-2.05,3.5,3.5,0,0,1,1.18-1.41,3,3,0,0,1,1.74-.51,3.24,3.24,0,0,1,1.2.23,3,3,0,0,1,1,.69,3.43,3.43,0,0,1,.73,1.17,4.82,4.82,0,0,1,.26,1.66v.44h-6v-.78h5.06a2.86,2.86,0,0,0-.3-1.33,2.31,2.31,0,0,0-.82-.93,2.14,2.14,0,0,0-1.21-.34,2.24,2.24,0,0,0-1.28.38,2.72,2.72,0,0,0-.86,1,3.22,3.22,0,0,0-.31,1.39v.47a3.79,3.79,0,0,0,.31,1.59,2.44,2.44,0,0,0,.9,1,2.75,2.75,0,0,0,2.33.2,2.06,2.06,0,0,0,.69-.45,1.93,1.93,0,0,0,.42-.63l.85.27a2.6,2.6,0,0,1-.57.89,3,3,0,0,1-1,.65A3.35,3.35,0,0,1,266.48,37Z" style="fill:#181ea9"/><path d="M276.65,30.88l-.81.23a2,2,0,0,0-.34-.62,1.59,1.59,0,0,0-.57-.45,2.18,2.18,0,0,0-.87-.16,2.06,2.06,0,0,0-1.27.37,1.13,1.13,0,0,0-.5.95,1.06,1.06,0,0,0,.34.8,2.56,2.56,0,0,0,1.06.48l1.15.28a3,3,0,0,1,1.44.74,1.8,1.8,0,0,1,.48,1.28,1.94,1.94,0,0,1-.36,1.15,2.4,2.4,0,0,1-1,.78,3.58,3.58,0,0,1-1.48.29,3.19,3.19,0,0,1-1.84-.5,2.34,2.34,0,0,1-.93-1.46l.85-.21a1.75,1.75,0,0,0,.64,1,2.14,2.14,0,0,0,1.27.34,2.33,2.33,0,0,0,1.41-.39,1.19,1.19,0,0,0,.52-1,1.09,1.09,0,0,0-.3-.78,1.93,1.93,0,0,0-.94-.47l-1.25-.29a2.84,2.84,0,0,1-1.47-.76,1.8,1.8,0,0,1-.48-1.28,1.86,1.86,0,0,1,.35-1.11,2.38,2.38,0,0,1,.94-.76,3.32,3.32,0,0,1,1.37-.27,2.7,2.7,0,0,1,1.68.48A2.63,2.63,0,0,1,276.65,30.88Z" style="fill:#181ea9"/><path d="M286.76,32.06v.83h-4.24v-.83Z" style="fill:#181ea9"/><path d="M293.8,32.07v4.77h-.88V26.66h.88V30.4h.08a2.16,2.16,0,0,1,.83-.94,2.64,2.64,0,0,1,1.43-.35,2.81,2.81,0,0,1,1.36.31,2.25,2.25,0,0,1,.92.94,3.26,3.26,0,0,1,.33,1.53v5h-.89V32a2.05,2.05,0,0,0-.53-1.49,1.88,1.88,0,0,0-1.41-.54,2.28,2.28,0,0,0-1.09.25,1.87,1.87,0,0,0-.75.75A2.2,2.2,0,0,0,293.8,32.07Z" style="fill:#181ea9"/><path d="M303.22,37a2.92,2.92,0,0,1-1.27-.27A2.23,2.23,0,0,1,301,36a2.26,2.26,0,0,1-.33-1.25,2,2,0,0,1,.21-1,1.67,1.67,0,0,1,.61-.63,3.3,3.3,0,0,1,.93-.4,8.89,8.89,0,0,1,1.18-.22l1.08-.14a1.86,1.86,0,0,0,.68-.19.43.43,0,0,0,.24-.42v-.17a1.63,1.63,0,0,0-.47-1.23,1.83,1.83,0,0,0-1.33-.45,2.34,2.34,0,0,0-1.35.36,2.09,2.09,0,0,0-.73.85l-.84-.3a2.51,2.51,0,0,1,.72-1,3,3,0,0,1,1-.54,4.11,4.11,0,0,1,1.15-.17,4.18,4.18,0,0,1,.91.11,2.65,2.65,0,0,1,.89.4,2.12,2.12,0,0,1,.66.78,2.79,2.79,0,0,1,.25,1.27v5.18h-.88V35.63h-.06a2.18,2.18,0,0,1-.47.66,2.52,2.52,0,0,1-.79.52A2.67,2.67,0,0,1,303.22,37Zm.11-.81a2.32,2.32,0,0,0,1.23-.31,2.2,2.2,0,0,0,.8-.83,2.47,2.47,0,0,0,.28-1.15v-1.1a1,1,0,0,1-.33.17,5.38,5.38,0,0,1-.54.13l-.59.1-.54.07a4.88,4.88,0,0,0-1.1.24,1.7,1.7,0,0,0-.71.47,1.17,1.17,0,0,0-.24.76,1.27,1.27,0,0,0,.5,1.07A1.93,1.93,0,0,0,303.33,36.2Z" style="fill:#181ea9"/><path d="M311.86,37a3.14,3.14,0,0,1-1.79-.51,3.43,3.43,0,0,1-1.17-1.4,4.72,4.72,0,0,1-.42-2,4.64,4.64,0,0,1,.43-2.05,3.38,3.38,0,0,1,1.18-1.4,3.05,3.05,0,0,1,1.75-.51,3.18,3.18,0,0,1,1.39.3,2.69,2.69,0,0,1,1,.83,2.53,2.53,0,0,1,.5,1.24h-.89a2,2,0,0,0-2-1.56,2.24,2.24,0,0,0-1.3.39,2.61,2.61,0,0,0-.87,1.1,4,4,0,0,0-.32,1.63,4,4,0,0,0,.31,1.64,2.52,2.52,0,0,0,.87,1.12,2.34,2.34,0,0,0,2.23.21,1.93,1.93,0,0,0,1.1-1.39h.89a2.78,2.78,0,0,1-.49,1.23,2.69,2.69,0,0,1-1,.85A3,3,0,0,1,311.86,37Z" style="fill:#181ea9"/><path d="M316.66,36.84V26.66h.89V36.84Zm.81-2.88V32.8h.2l3.58-3.6h1.12l-3.54,3.54-.08,0Zm3.95,2.88-3.1-3.92.64-.61,3.6,4.53Z" style="fill:#181ea9"/><path d="M330.92,37a3.15,3.15,0,0,1-1.75-.5A3.42,3.42,0,0,1,328,35.11a4.61,4.61,0,0,1-.43-2A4.7,4.7,0,0,1,328,31a3.36,3.36,0,0,1,1.18-1.39,3.31,3.31,0,0,1,3.5,0A3.42,3.42,0,0,1,333.85,31a4.7,4.7,0,0,1,.43,2.07,4.75,4.75,0,0,1-.42,2,3.45,3.45,0,0,1-1.19,1.39A3.12,3.12,0,0,1,330.92,37Zm0-.81a2.12,2.12,0,0,0,1.35-.43,2.58,2.58,0,0,0,.84-1.14,4.13,4.13,0,0,0,.28-1.56,4.18,4.18,0,0,0-.28-1.57,2.67,2.67,0,0,0-.84-1.15,2.32,2.32,0,0,0-2.69,0,2.67,2.67,0,0,0-.84,1.15,4.18,4.18,0,0,0-.29,1.57,4.13,4.13,0,0,0,.29,1.56,2.58,2.58,0,0,0,.84,1.14A2.07,2.07,0,0,0,330.92,36.19Z" style="fill:#181ea9"/><path d="M337.11,32.07v4.77h-.88V29.2h.86v1.2h.08a2.15,2.15,0,0,1,.83-.94,2.59,2.59,0,0,1,1.41-.35,2.71,2.71,0,0,1,1.36.32,2.18,2.18,0,0,1,.91.94,3.19,3.19,0,0,1,.32,1.52v5h-.88V32a2.07,2.07,0,0,0-.53-1.49,1.84,1.84,0,0,0-1.4-.54,2.2,2.2,0,0,0-1.07.25,1.91,1.91,0,0,0-.74.75A2.3,2.3,0,0,0,337.11,32.07Z" style="fill:#181ea9"/><path d="M355.51,29.84a4,4,0,0,0-.41-.95,3.11,3.11,0,0,0-.66-.78,3.06,3.06,0,0,0-.91-.53,3.51,3.51,0,0,0-1.15-.19,3.2,3.2,0,0,0-1.78.52,3.53,3.53,0,0,0-1.24,1.49,6.34,6.34,0,0,0,0,4.69,3.6,3.6,0,0,0,1.26,1.5,3.32,3.32,0,0,0,1.83.52,3.28,3.28,0,0,0,1.66-.42,2.89,2.89,0,0,0,1.12-1.2,3.9,3.9,0,0,0,.4-1.84l.29.09h-3.26v-.83h3.87v.83A4.52,4.52,0,0,1,356,35a3.68,3.68,0,0,1-1.44,1.46,4.57,4.57,0,0,1-4.45-.12,4.34,4.34,0,0,1-1.55-1.82,6.46,6.46,0,0,1-.56-2.77,6.91,6.91,0,0,1,.32-2.16,4.86,4.86,0,0,1,.91-1.65,4.06,4.06,0,0,1,1.38-1.06,4.24,4.24,0,0,1,1.77-.36,4.38,4.38,0,0,1,1.53.26,4,4,0,0,1,1.22.73,3.68,3.68,0,0,1,.87,1.06,3.8,3.8,0,0,1,.46,1.27Z" style="fill:#181ea9"/><path d="M361.63,37a3.15,3.15,0,0,1-1.75-.5,3.52,3.52,0,0,1-1.19-1.39,4.75,4.75,0,0,1-.42-2,4.84,4.84,0,0,1,.42-2.07,3.46,3.46,0,0,1,1.19-1.39,3.15,3.15,0,0,1,1.75-.5,3.09,3.09,0,0,1,1.74.5A3.45,3.45,0,0,1,364.56,31a4.84,4.84,0,0,1,.43,2.07,4.61,4.61,0,0,1-.43,2,3.42,3.42,0,0,1-1.18,1.39A3.15,3.15,0,0,1,361.63,37Zm0-.81a2.07,2.07,0,0,0,1.34-.43,2.58,2.58,0,0,0,.84-1.14,4.13,4.13,0,0,0,.29-1.56,4.18,4.18,0,0,0-.29-1.57,2.67,2.67,0,0,0-.84-1.15,2.07,2.07,0,0,0-1.34-.43,2.12,2.12,0,0,0-1.35.43,2.67,2.67,0,0,0-.84,1.15,4.18,4.18,0,0,0-.28,1.57,4.13,4.13,0,0,0,.28,1.56,2.58,2.58,0,0,0,.84,1.14A2.12,2.12,0,0,0,361.63,36.19Z" style="fill:#181ea9"/><path d="M367.82,26.66V36.84h-.89V26.66Z" style="fill:#181ea9"/><path d="M373.24,37a3.39,3.39,0,0,1-1.85-.5,3.29,3.29,0,0,1-1.21-1.39,4.71,4.71,0,0,1-.42-2,4.78,4.78,0,0,1,.42-2.05,3.5,3.5,0,0,1,1.18-1.41,3.07,3.07,0,0,1,1.75-.51,3.23,3.23,0,0,1,1.19.23,3,3,0,0,1,1,.69,3.28,3.28,0,0,1,.73,1.17,4.58,4.58,0,0,1,.27,1.66v.44h-6v-.78h5.06a3,3,0,0,0-.29-1.33,2.39,2.39,0,0,0-.82-.93,2.16,2.16,0,0,0-1.21-.34,2.22,2.22,0,0,0-1.28.38,2.55,2.55,0,0,0-.86,1,3.09,3.09,0,0,0-.32,1.39v.47a3.64,3.64,0,0,0,.32,1.59,2.35,2.35,0,0,0,2.27,1.42,2.52,2.52,0,0,0,.95-.17,1.88,1.88,0,0,0,.69-.45,2.14,2.14,0,0,0,.43-.63l.84.27a2.6,2.6,0,0,1-.57.89,2.8,2.8,0,0,1-1,.65A3.35,3.35,0,0,1,373.24,37Z" style="fill:#181ea9"/><path d="M378.28,36.84V29.2h.86v1.18h.08a1.84,1.84,0,0,1,.76-.93,2.34,2.34,0,0,1,1.29-.34,2.13,2.13,0,0,1,1.3.37,2.17,2.17,0,0,1,.76,1h.07a2.12,2.12,0,0,1,.84-1,2.57,2.57,0,0,1,1.42-.37,2.18,2.18,0,0,1,1.68.66,2.8,2.8,0,0,1,.62,1.95v5.12h-.89V31.72a1.8,1.8,0,0,0-.46-1.35,1.69,1.69,0,0,0-1.22-.45,1.71,1.71,0,0,0-1.35.53,2,2,0,0,0-.47,1.36v5h-.9V31.65a1.81,1.81,0,0,0-.44-1.26,1.53,1.53,0,0,0-1.21-.47,1.8,1.8,0,0,0-.95.25,1.91,1.91,0,0,0-.66.72,2.27,2.27,0,0,0-.24,1.06v4.89Z" style="fill:#181ea9"/></svg>